<svg width="15" height="15" viewBox="0 0 15 15" fill="none" xmlns="http://www.w3.org/2000/svg">
<path d="M14.0693 1.12572C13.5816 0.638092 12.7934 0.638092 12.3057 1.12572L7.59268 5.82913L2.87928 1.11572C2.39165 0.628092 1.60335 0.628092 1.11572 1.11572C0.628092 1.60335 0.628092 2.39165 1.11572 2.87928L5.82895 7.5925L1.11572 12.3057C0.628092 12.7934 0.628092 13.5816 1.11572 14.0693C1.60335 14.5569 2.39165 14.5569 2.87928 14.0693L7.5925 9.35605L12.3057 14.0693C12.7934 14.5569 13.5816 14.5569 14.0693 14.0693C14.5569 13.5816 14.5569 12.7934 14.0693 12.3057L9.35605 7.5925L14.0693 2.87928C14.5469 2.40165 14.5469 1.60335 14.0693 1.12572Z" fill="white" stroke="black" stroke-width="0.5"/>
</svg>
