<svg width="73" height="32" viewBox="0 0 73 32" fill="none" xmlns="http://www.w3.org/2000/svg">
<g clip-path="url(#clip0_19_55)">
<path d="M25.3615 0.39502L0.68544 31.6049H10.2817L15.7653 24.0987L22.277 31.6049H31.1878L18.8498 18.9629L25.3615 10.6666L43.8685 31.6049H51.4084L25.3615 0.39502Z" fill="#F2F4F8"/>
<path d="M42.1549 16.1975L38.0423 10.6666L39.4131 9.08638L47.9812 0.39502L72.3146 31.6049H63.4038L47.9812 10.6666L42.1549 16.1975Z" fill="#F2F4F8"/>
<path d="M25.3615 0.39502L0.68544 31.6049H10.2817L15.7653 24.0987L22.277 31.6049H31.1878L18.8498 18.9629L25.3615 10.6666L43.8685 31.6049H51.4084L25.3615 0.39502Z" stroke="black"/>
<path d="M42.1549 16.1975L38.0423 10.6666L39.4131 9.08638L47.9812 0.39502L72.3146 31.6049H63.4038L47.9812 10.6666L42.1549 16.1975Z" stroke="black"/>
</g>
<defs>
<clipPath id="clip0_19_55">
<rect width="73" height="32" fill="white"/>
</clipPath>
</defs>
</svg>
