<svg width="58" height="20" viewBox="0 0 58 20" fill="none" xmlns="http://www.w3.org/2000/svg">
<g clip-path="url(#clip0_19_56)">
<path d="M20.1502 0.246918L0.544601 19.7531H8.16901L12.5258 15.0617L17.6995 19.7531H24.7793L14.9765 11.8519L20.1502 6.66667L34.8545 19.7531H40.8451L20.1502 0.246918Z" fill="#F2F4F8"/>
<path d="M33.493 10.1235L30.2254 6.66667L31.3146 5.67902L38.1221 0.246918L57.4554 19.7531H50.3756L38.1221 6.66667L33.493 10.1235Z" fill="#F2F4F8"/>
<path d="M20.1502 0.246918L0.544601 19.7531H8.16901L12.5258 15.0617L17.6995 19.7531H24.7793L14.9765 11.8519L20.1502 6.66667L34.8545 19.7531H40.8451L20.1502 0.246918Z" stroke="black"/>
<path d="M33.493 10.1235L30.2254 6.66667L31.3146 5.67902L38.1221 0.246918L57.4554 19.7531H50.3756L38.1221 6.66667L33.493 10.1235Z" stroke="black"/>
</g>
<defs>
<clipPath id="clip0_19_56">
<rect width="58" height="20" fill="white"/>
</clipPath>
</defs>
</svg>
