<svg width="63" height="25" viewBox="0 0 63 25" fill="none" xmlns="http://www.w3.org/2000/svg">
<g clip-path="url(#clip0_19_44)">
<path d="M21.8873 0.308655L0.591549 24.6914H8.87324L13.6056 18.8272L19.2254 24.6914H26.9155L16.2676 14.8148L21.8873 8.33335L37.8592 24.6914H44.3662L21.8873 0.308655Z" fill="#001B48"/>
<path d="M36.3803 12.6543L32.831 8.33335L34.0141 7.09878L41.4085 0.308655L62.4084 24.6914H54.7183L41.4085 8.33335L36.3803 12.6543Z" fill="#001B48"/>
<path d="M21.8873 0.308655L0.591549 24.6914H8.87324L13.6056 18.8272L19.2254 24.6914H26.9155L16.2676 14.8148L21.8873 8.33335L37.8592 24.6914H44.3662L21.8873 0.308655Z" stroke="black"/>
<path d="M36.3803 12.6543L32.831 8.33335L34.0141 7.09878L41.4085 0.308655L62.4084 24.6914H54.7183L41.4085 8.33335L36.3803 12.6543Z" stroke="black"/>
</g>
<defs>
<clipPath id="clip0_19_44">
<rect width="63" height="25" fill="white"/>
</clipPath>
</defs>
</svg>
