<svg width="80" height="75" viewBox="0 0 80 75" fill="none" xmlns="http://www.w3.org/2000/svg">
<path fill-rule="evenodd" clip-rule="evenodd" d="M16.6163 0C12.0516 0 8.67391 4.70193 8.82516 9.80106C8.97031 14.6999 8.78172 21.0447 7.42453 26.2188C6.0625 31.4075 3.76063 34.6956 0 35.1176V39.8824C3.76063 40.3053 6.0625 43.5917 7.42437 48.7811C8.78172 53.9553 8.97016 60.3001 8.825 65.1989C8.67375 70.2973 12.0514 75 16.6169 75H63.3898C67.9545 75 71.3316 70.2981 71.1803 65.1989C71.0352 60.3001 71.2238 53.9553 72.5809 48.7811C73.943 43.5917 76.2392 40.3041 80 39.8824V35.1176C76.2394 34.6947 73.9431 31.4083 72.5809 26.2188C71.2236 21.0454 71.0352 14.6999 71.1803 9.80106C71.3316 4.70267 67.9545 0 63.3898 0H16.6156H16.6163ZM54.2373 46.1674C54.2373 53.1887 49.7872 57.4469 42.402 57.4469H29.8305C29.4709 57.4469 29.126 57.2788 28.8717 56.9795C28.6174 56.6803 28.4745 56.2744 28.4745 55.8512V19.149C28.4745 18.7258 28.6174 18.3199 28.8717 18.0207C29.126 17.7214 29.4709 17.5533 29.8305 17.5533H42.3305C48.4884 17.5533 52.5298 21.4788 52.5298 27.5059C52.5298 31.7361 49.8111 35.5232 46.3475 36.1867V36.4074C51.0625 37.016 54.2373 40.8592 54.2373 46.1674V46.1674ZM41.0313 22.6118H33.8631V34.5275H39.9005C44.5677 34.5275 47.1411 32.3157 47.1411 28.3624C47.1406 24.6575 44.9281 22.6118 41.0313 22.6118ZM33.8631 39.2554V52.3868H41.295C46.1544 52.3868 48.7283 50.0921 48.7283 45.7796C48.7283 41.4671 46.0822 39.2546 40.9825 39.2546H33.8631V39.2554Z" fill="#7952B3"/>
</svg>
