<svg width="75" height="75" viewBox="0 0 75 75" fill="none" xmlns="http://www.w3.org/2000/svg">
<g clip-path="url(#clip0_210_4)">
<path d="M65.558 43.0389C62.9359 43.0587 60.6654 43.8983 58.7611 45.1485C58.058 43.293 57.3548 41.6718 57.2378 40.461C57.106 39.0548 56.9448 38.1952 57.106 36.5157C57.2669 34.8358 57.9994 32.453 57.9994 32.2577C57.9846 32.0819 57.8381 31.2225 56.3294 31.203C54.8208 31.1835 53.5169 31.5936 53.3705 32.121C53.224 32.6483 52.931 33.8593 52.7406 35.1093C52.4769 36.9452 49.723 43.4491 48.1556 46.8671C47.6429 45.5389 47.2035 44.3671 47.1154 43.4294C46.9837 42.0233 46.8225 41.1637 46.9837 39.4843C47.1449 37.8044 47.8773 35.4218 47.8773 35.2264C47.8626 35.0507 47.7162 34.1913 46.2075 34.1718C44.6986 34.1522 43.395 34.5624 43.2485 35.0897C43.102 35.6171 42.9409 36.8671 42.6187 38.078C42.3109 39.2889 38.6488 50.1483 37.6966 52.9804C37.2132 54.4257 36.7886 55.578 36.4808 56.3593C36.1732 57.1405 36.4662 56.4179 36.4369 56.496C36.1732 57.16 36.0267 57.5311 36.0267 57.5311V57.5509C35.8216 58.0391 35.6019 58.5077 35.4992 58.5077C35.426 58.5077 35.2795 57.1991 35.5285 55.4024C36.0705 51.6327 37.3889 45.754 37.3744 45.5391C37.3744 45.4415 37.6232 44.4061 36.5246 43.879C35.4553 43.3516 35.0746 44.2305 34.9865 44.2305C34.8986 44.2305 34.8254 44.543 34.8254 44.543C34.8254 44.543 36.0119 37.9221 32.5549 37.9221C30.3869 37.9221 27.3986 41.0667 25.9191 43.9378C24.9816 44.6214 22.9895 46.0665 20.8801 47.6096C20.0744 48.1956 19.2395 48.8206 18.4484 49.387L18.2875 49.1522C14.098 43.1952 6.34897 38.9764 6.67124 30.9686C6.78843 28.0585 7.55015 20.3827 21.5542 11.0858C33.0239 3.46863 42.2085 5.55848 43.805 10.2069C46.0755 16.8475 38.8978 29.1913 26.9741 30.9686C22.4331 31.6522 20.0453 29.3085 19.4448 28.4296C18.8149 27.5116 18.7271 27.4725 18.4927 27.6483C18.1118 27.9218 18.3462 28.7421 18.4927 29.2303C18.8442 30.4608 20.3091 32.6483 22.7993 33.7421C24.9818 34.6991 30.314 35.2264 36.7593 31.9061C43.981 28.1757 49.6206 17.8241 47.9653 9.17176C46.2808 0.363163 35.3237 -2.52746 24.9673 2.37488C18.8001 5.30457 12.1205 9.87488 7.31577 15.871C1.60288 22.9804 0.694677 29.1913 1.07554 31.7694C2.40869 40.9686 11.9154 46.9647 15.724 51.3983C15.5335 51.5348 15.3578 51.6716 15.1966 51.7889C13.2923 53.0387 6.04136 58.0975 4.22495 63.4489C2.17417 69.5036 4.54722 73.8593 6.12925 74.4452C11.0218 76.2616 16.0316 72.9999 18.7416 67.6288C21.4367 62.2577 21.1146 55.285 19.8695 52.1014L19.8254 51.9843L21.3195 50.8124C22.2865 50.0507 23.2386 49.3475 24.0734 48.7419C23.6048 50.4411 23.2678 52.4528 23.0921 55.3825C22.8871 58.8202 23.9417 63.2731 25.3333 65.0309C25.9486 65.7925 26.681 65.8122 27.1351 65.8122C28.7464 65.8122 29.4789 64.0346 30.2845 61.9059C31.2806 59.3083 32.1595 56.3005 32.1595 56.3005C32.1595 56.3005 31.0609 64.445 34.0638 64.445C35.1625 64.445 36.2611 62.5505 36.7591 61.5739V61.5934C36.7591 61.5934 36.7884 61.5348 36.847 61.3981C36.9085 61.277 36.9671 61.1533 37.0228 61.0272V60.9882C37.4623 59.9725 38.4437 57.6483 39.9085 53.8007C41.798 48.8397 43.6146 42.6288 43.6146 42.6288C43.6146 42.6288 43.7904 44.1522 44.3324 46.6522C44.6545 48.1368 45.3576 49.7577 45.8996 51.3397C45.4602 52.16 45.1965 52.629 45.1965 52.629L45.2111 52.6485C44.8597 53.2735 44.4641 53.9378 44.0541 54.6016C42.5599 56.9845 40.7728 59.6995 40.5384 60.4807C40.2601 61.3985 40.3187 62.0821 40.8607 62.6292C41.2562 63.0198 41.9593 63.0977 42.7064 63.0198C44.0541 62.9024 44.9916 62.4534 45.4603 62.1798C46.1927 61.8282 47.0277 61.3009 47.8333 60.5196C49.2982 59.0745 50.1917 57.0237 50.1039 54.2893C50.0599 52.7854 49.6937 51.3011 49.2396 49.8948C49.3714 49.6409 49.5034 49.3868 49.6351 49.1136C51.9496 44.6016 53.7367 39.6409 53.7367 39.6409C53.7367 39.6409 53.9124 41.1643 54.4544 43.6643C54.7326 44.9339 55.2894 46.3208 55.7874 47.688C53.6195 50.0512 52.2572 52.7856 51.7884 54.5825C50.9242 57.9028 51.598 59.4067 52.8724 59.7583C53.4436 59.9145 54.264 59.563 54.8791 59.2114C55.6408 58.8794 56.5637 58.3128 57.4134 57.4731C58.8783 56.0278 60.2845 54.0161 60.2113 51.3013C60.1673 50.0513 59.9183 48.8208 59.5814 47.6489C61.4271 46.6333 63.8146 46.0473 66.847 46.5356C73.3656 47.5512 74.6546 52.9809 74.4058 55.2466C74.1567 57.5124 72.7944 58.7622 72.3402 59.1528C71.8861 59.5239 71.7396 59.6608 71.7835 59.9341C71.8421 60.3444 72.0472 60.3247 72.4427 60.2468C72.9847 60.1294 75.8705 58.3913 75.9876 54.2118C76.1634 48.8399 72.3402 42.9805 65.558 43.0389V43.0389ZM15.2845 65.6366C13.1312 68.7811 10.099 69.9725 8.80991 68.9569C7.41831 67.8827 7.96016 63.2538 10.6117 59.9139C12.223 57.8827 14.3177 56.0077 15.6947 54.8554C16.0023 54.6014 16.471 54.2305 17.0277 53.7811C17.1156 53.7032 17.1742 53.6639 17.1742 53.6639C17.2767 53.5858 17.3939 53.4882 17.5111 53.3905C18.4925 58.1561 17.555 62.3358 15.2845 65.6366V65.6366ZM31.0316 51.3593C30.2845 53.8007 28.7025 60.0702 27.7503 59.7186C26.9299 59.4257 26.432 54.6796 27.5891 49.9921C28.175 47.6286 29.4201 44.8163 30.1525 43.7223C31.3392 41.9645 32.6281 41.3786 32.9505 42.1012C33.3314 43.0389 31.5003 49.8358 31.0316 51.3593ZM44.0248 59.6405C43.7025 59.8555 43.4095 60.0116 43.2777 59.8946C43.1751 59.8165 43.4094 59.5235 43.4094 59.5235C43.4094 59.5235 45.0353 57.1993 45.6799 56.1251C46.0461 55.5003 46.4855 54.7776 46.9543 53.9571V54.1915C46.9544 57.0038 44.933 58.8788 44.0248 59.6405ZM54.0441 56.5936C53.8098 56.3593 53.8392 55.6366 54.6301 53.371C54.9378 52.4725 55.6408 50.9686 56.8566 49.5428C57.0031 50.1288 57.0912 50.695 57.0764 51.2225C57.0619 54.7382 55.1869 56.0468 54.0441 56.5936Z" fill="#CF649A"/>
</g>
<defs>
<clipPath id="clip0_210_4">
<rect width="75" height="75" fill="white"/>
</clipPath>
</defs>
</svg>
